<svg xmlns="http://www.w3.org/2000/svg" version="1.1" xmlns:xlink="http://www.w3.org/1999/xlink" xmlns:svgjs="http://svgjs.dev/svgjs" width="1500" height="500" preserveAspectRatio="none" viewBox="0 0 1500 500"><g mask="url(&quot;#SvgjsMask1169&quot;)" fill="none"><path d="M467.986,616.535C510.808,617.283,558.348,612.9,581.002,576.553C604.595,538.699,593.485,490.341,570.439,452.152C548.25,415.383,510.929,389.742,467.986,389.277C424.249,388.803,383.557,412.052,361.615,449.89C339.6,487.853,337.996,535.731,361.607,572.722C383.722,607.368,426.889,615.817,467.986,616.535" fill="rgba(94, 171, 206, 0.4)" class="triangle-float2"></path><path d="M1470.881,542.887C1495.142,543.921,1517.23,528.868,1528.984,507.619C1540.375,487.026,1538.974,461.927,1526.805,441.785C1515.051,422.329,1493.611,411.651,1470.881,411.446C1447.759,411.237,1424.28,420.475,1413.178,440.759C1402.422,460.411,1409.749,483.5,1420.769,503.005C1432.024,522.926,1448.021,541.912,1470.881,542.887" fill="rgba(94, 171, 206, 0.4)" class="triangle-float2"></path><path d="M42.397,556.926C78.867,554.341,105.602,526.227,123.275,494.22C140.233,463.508,148.153,426.972,131.069,396.33C113.595,364.988,78.261,347.94,42.397,349.152C8.501,350.298,-17.893,373.616,-36.468,401.992C-57.629,434.319,-78.648,472.858,-61.121,507.291C-42.515,543.843,1.485,559.826,42.397,556.926" fill="rgba(94, 171, 206, 0.4)" class="triangle-float1"></path><path d="M648.6,264.636C664.802,265.838,681.918,259.239,689.574,244.909C696.922,231.155,690.598,214.988,682.115,201.903C674.51,190.172,662.577,181.981,648.6,181.705C634.125,181.42,619.666,187.834,612.715,200.534C605.988,212.825,610.113,227.296,616.957,239.522C624.007,252.116,634.207,263.568,648.6,264.636" fill="rgba(94, 171, 206, 0.4)" class="triangle-float2"></path></g><defs><mask id="SvgjsMask1169"><rect width="1500" height="500" fill="#ffffff"></rect></mask><style>
                @keyframes float1 {
                    0%{transform: translate(0, 0)}
                    50%{transform: translate(-10px, 0)}
                    100%{transform: translate(0, 0)}
                }

                .triangle-float1 {
                    animation: float1 5s infinite;
                }

                @keyframes float2 {
                    0%{transform: translate(0, 0)}
                    50%{transform: translate(-5px, -5px)}
                    100%{transform: translate(0, 0)}
                }

                .triangle-float2 {
                    animation: float2 4s infinite;
                }

                @keyframes float3 {
                    0%{transform: translate(0, 0)}
                    50%{transform: translate(0, -10px)}
                    100%{transform: translate(0, 0)}
                }

                .triangle-float3 {
                    animation: float3 6s infinite;
                }
            </style></defs></svg>