<svg xmlns="http://www.w3.org/2000/svg" version="1.1" xmlns:xlink="http://www.w3.org/1999/xlink" xmlns:svgjs="http://svgjs.dev/svgjs" width="1440" height="560" preserveAspectRatio="none" viewBox="0 0 1440 560"><g mask="url(&quot;#SvgjsMask1012&quot;)" fill="none"><path d="M95.26 593.69C220.47 591.31 330.4 428.07 567.96 427.95 805.52 427.83 804.31 497.95 1040.66 497.95 1277.01 497.95 1393.9 428.14 1513.36 427.95" stroke="rgba(217, 231, 248, 0.58)" stroke-width="2"></path><path d="M769.85 603.21C888.77 599.44 968.13 426.47 1208.08 417.63 1448.02 408.79 1525.22 215.56 1646.3 210.43" stroke="rgba(217, 231, 248, 0.58)" stroke-width="2"></path><path d="M186.03 645.32C352.56 645.26 508.33 587.12 849.41 584.91 1190.5 582.7 1334.95 331.78 1512.8 327.31" stroke="rgba(217, 231, 248, 0.58)" stroke-width="2"></path><path d="M407.27 562.43C586.07 552.25 700.18 235.61 1040.11 226.76 1380.03 217.91 1509.61 65.65 1672.94 64.36" stroke="rgba(217, 231, 248, 0.58)" stroke-width="2"></path><path d="M381.85 653.25C569.03 641.89 686.58 304.01 1040.69 294.67 1394.81 285.33 1529.9 133.46 1699.54 132.27" stroke="rgba(217, 231, 248, 0.58)" stroke-width="2"></path></g><defs><mask id="SvgjsMask1012"><rect width="1440" height="560" fill="#ffffff"></rect></mask></defs></svg>